<svg width="143" height="35" viewBox="0 0 143 35" fill="none" xmlns="http://www.w3.org/2000/svg">
<path d="M21.1103 12.8468C22.031 15.9609 19.9249 19.2752 16.4062 20.2496C12.8874 21.2241 9.2886 19.4896 8.36785 16.3755C7.44717 13.2615 9.55326 9.94719 13.072 8.97275C16.5908 7.99832 20.1896 9.73283 21.1103 12.8468Z" fill="#474448"/>
<path d="M17.7317 11.2509C19.5494 12.9166 19.5624 15.7598 17.7606 17.6012C15.9589 19.4427 13.0248 19.5852 11.2071 17.9195C9.38945 16.2538 9.37655 13.4106 11.1782 11.5691C12.98 9.72768 15.9141 9.58521 17.7317 11.2509Z" fill="#5D555C"/>
<path d="M16.2585 12.334C20.5489 16.3509 6.01202 40.7859 14.9414 31.8531C23.8709 22.9204 31.4149 6.03351 27.1246 2.01662C22.8343 -2.00028 12.1176 1.98479 3.1881 10.9175C-5.74139 19.8502 11.9683 8.31706 16.2585 12.334Z" fill="url(#paint0_linear)"/>
<path fill-rule="evenodd" clip-rule="evenodd" d="M13.8722 33.7892C14.2814 33.459 14.7652 33.014 15.3317 32.4473C19.8614 27.9159 24.0211 21.3913 26.5127 15.4899C27.7585 12.5393 28.601 9.71249 28.853 7.34527C29.1007 5.01838 28.7958 2.95118 27.4999 1.7379C25.0699 -0.537335 20.9812 -0.429918 16.5991 1.19965C12.1627 2.84932 7.17581 6.1372 2.6615 10.6532C1.54293 11.7721 0.80369 12.6069 0.404585 13.2105C0.21166 13.5021 0.0512714 13.8076 0.010376 14.1043C-0.0115967 14.2634 -0.0039444 14.4537 0.0852184 14.6413C0.177925 14.8367 0.331583 14.9715 0.497078 15.0549C0.78767 15.2014 1.12965 15.1981 1.38927 15.1749C1.67674 15.1491 2.00767 15.0826 2.3595 14.9948C3.06415 14.8189 3.94648 14.533 4.90289 14.2187C4.99382 14.1888 5.08553 14.1586 5.17796 14.1282C7.05554 13.5104 9.22619 12.796 11.1975 12.4463C12.2299 12.2632 13.1726 12.1871 13.966 12.2653C14.7595 12.3435 15.349 12.5702 15.7469 12.9426C16.1029 13.276 16.3328 13.8951 16.3617 14.875C16.3901 15.8364 16.2213 17.0288 15.916 18.3664C15.3057 21.0397 14.184 24.1548 13.1899 26.9111L13.1787 26.942C12.6888 28.3005 12.2296 29.5734 11.8877 30.6445C11.5499 31.7026 11.3012 32.6374 11.2778 33.2797C11.2717 33.4469 11.2794 33.6194 11.3157 33.7828C11.3514 33.9436 11.4237 34.1356 11.5786 34.2974C11.9528 34.6885 12.4607 34.6042 12.7776 34.4825C13.1065 34.356 13.473 34.1112 13.8722 33.7892ZM13.7839 27.1374C15.7668 21.64 18.3385 14.5102 16.1903 12.499C14.0983 10.5401 8.81532 12.279 4.98624 13.5392C0.962879 14.8634 -1.45527 15.6593 3.11992 11.0824C12.0494 2.14974 22.7661 -1.83533 27.0564 2.18157C31.3467 6.19846 23.8027 23.0853 14.8732 32.018C10.4147 36.4782 11.8065 32.6196 13.7839 27.1374Z" fill="#63F1AD" fill-opacity="0.4"/>
<path d="M14.9701 17.0946C14.5396 17.0946 14.1905 16.7568 14.1905 16.3401C14.1905 15.9234 14.5396 15.5855 14.9701 15.5855C15.4007 15.5855 15.7498 15.9234 15.7498 16.3401C15.7498 16.7568 15.4007 17.0946 14.9701 17.0946Z" fill="#474448"/>
<path d="M14.1195 15.7227C13.9238 15.7227 13.7651 15.5692 13.7651 15.3798C13.7651 15.1903 13.9238 15.0368 14.1195 15.0368C14.3153 15.0368 14.4739 15.1903 14.4739 15.3798C14.4739 15.5692 14.3153 15.7227 14.1195 15.7227Z" fill="#474448"/>
<path d="M42.5913 24H44.7603V18.6H49.3143V16.44H44.7603V13.209H50.3943V11.04H42.5913V24ZM56.0425 24.27C57.0145 24.27 57.8635 24.054 58.5895 23.622C59.3155 23.184 59.8795 22.581 60.2815 21.813C60.6895 21.039 60.8935 20.148 60.8935 19.14C60.8935 18.138 60.6925 17.253 60.2905 16.485C59.8885 15.711 59.3245 15.105 58.5985 14.667C57.8725 14.229 57.0205 14.01 56.0425 14.01C55.0885 14.01 54.2485 14.226 53.5225 14.658C52.7965 15.09 52.2295 15.69 51.8215 16.458C51.4135 17.226 51.2095 18.12 51.2095 19.14C51.2095 20.142 51.4075 21.03 51.8035 21.804C52.2055 22.572 52.7695 23.175 53.4955 23.613C54.2215 24.051 55.0705 24.27 56.0425 24.27ZM56.0425 22.236C55.2085 22.236 54.5755 21.957 54.1435 21.399C53.7175 20.835 53.5045 20.082 53.5045 19.14C53.5045 18.222 53.7085 17.478 54.1165 16.908C54.5305 16.332 55.1725 16.044 56.0425 16.044C56.8945 16.044 57.5335 16.326 57.9595 16.89C58.3855 17.448 58.5985 18.198 58.5985 19.14C58.5985 20.052 58.3855 20.796 57.9595 21.372C57.5395 21.948 56.9005 22.236 56.0425 22.236ZM67.1695 24.27C68.1415 24.27 68.9905 24.054 69.7165 23.622C70.4425 23.184 71.0065 22.581 71.4085 21.813C71.8165 21.039 72.0205 20.148 72.0205 19.14C72.0205 18.138 71.8195 17.253 71.4175 16.485C71.0155 15.711 70.4515 15.105 69.7255 14.667C68.9995 14.229 68.1475 14.01 67.1695 14.01C66.2155 14.01 65.3755 14.226 64.6495 14.658C63.9235 15.09 63.3565 15.69 62.9485 16.458C62.5405 17.226 62.3365 18.12 62.3365 19.14C62.3365 20.142 62.5345 21.03 62.9305 21.804C63.3325 22.572 63.8965 23.175 64.6225 23.613C65.3485 24.051 66.1975 24.27 67.1695 24.27ZM67.1695 22.236C66.3355 22.236 65.7025 21.957 65.2705 21.399C64.8445 20.835 64.6315 20.082 64.6315 19.14C64.6315 18.222 64.8355 17.478 65.2435 16.908C65.6575 16.332 66.2995 16.044 67.1695 16.044C68.0215 16.044 68.6605 16.326 69.0865 16.89C69.5125 17.448 69.7255 18.198 69.7255 19.14C69.7255 20.052 69.5125 20.796 69.0865 21.372C68.6665 21.948 68.0275 22.236 67.1695 22.236ZM77.9004 24.27C78.4764 24.27 78.9954 24.183 79.4574 24.009C79.9194 23.835 80.3244 23.592 80.6724 23.28V24H82.5894V11.04H80.4024V14.757C80.0784 14.517 79.7154 14.334 79.3134 14.208C78.9114 14.076 78.4674 14.01 77.9814 14.01C77.0634 14.01 76.2654 14.232 75.5874 14.676C74.9154 15.12 74.3934 15.729 74.0214 16.503C73.6494 17.277 73.4634 18.156 73.4634 19.14C73.4634 20.112 73.6464 20.985 74.0124 21.759C74.3784 22.533 74.8944 23.145 75.5604 23.595C76.2264 24.045 77.0064 24.27 77.9004 24.27ZM78.2334 22.326C77.6694 22.326 77.2044 22.185 76.8384 21.903C76.4724 21.615 76.1994 21.231 76.0194 20.751C75.8454 20.271 75.7584 19.734 75.7584 19.14C75.7584 18.552 75.8484 18.018 76.0284 17.538C76.2144 17.052 76.4934 16.668 76.8654 16.386C77.2434 16.098 77.7234 15.954 78.3054 15.954C79.1334 15.954 79.7334 16.248 80.1054 16.836C80.4834 17.424 80.6724 18.192 80.6724 19.14C80.6724 20.082 80.4834 20.85 80.1054 21.444C79.7334 22.032 79.1094 22.326 78.2334 22.326Z" fill="#53E9A1"/>
<path d="M85.1128 24H87.2818V18.6H91.8358V16.44H87.2818V13.209H92.9158V11.04H85.1128V24ZM94.7147 12.804H96.8837V10.815H94.7147V12.804ZM94.7147 24H96.8837V14.28H94.7147V24ZM99.5616 24H101.758V19.005C101.758 18.219 101.869 17.613 102.091 17.187C102.319 16.755 102.607 16.458 102.955 16.296C103.309 16.128 103.669 16.044 104.035 16.044C104.551 16.044 104.962 16.158 105.268 16.386C105.574 16.608 105.799 16.893 105.943 17.241C106.093 17.583 106.189 17.94 106.231 18.312C106.279 18.684 106.303 19.02 106.303 19.32V24H108.499V18.573C108.499 18.345 108.478 18.042 108.436 17.664C108.4 17.286 108.316 16.887 108.184 16.467C108.052 16.047 107.848 15.651 107.572 15.279C107.296 14.901 106.921 14.595 106.447 14.361C105.979 14.121 105.388 14.001 104.674 14.001C103.972 14.001 103.354 14.124 102.82 14.37C102.292 14.61 101.851 14.94 101.497 15.36V14.28H99.5616V24ZM114.586 24.27C115.162 24.27 115.681 24.183 116.143 24.009C116.605 23.835 117.01 23.592 117.358 23.28V24H119.275V11.04H117.088V14.757C116.764 14.517 116.401 14.334 115.999 14.208C115.597 14.076 115.153 14.01 114.667 14.01C113.749 14.01 112.951 14.232 112.273 14.676C111.601 15.12 111.079 15.729 110.707 16.503C110.335 17.277 110.149 18.156 110.149 19.14C110.149 20.112 110.332 20.985 110.698 21.759C111.064 22.533 111.58 23.145 112.246 23.595C112.912 24.045 113.692 24.27 114.586 24.27ZM114.919 22.326C114.355 22.326 113.89 22.185 113.524 21.903C113.158 21.615 112.885 21.231 112.705 20.751C112.531 20.271 112.444 19.734 112.444 19.14C112.444 18.552 112.534 18.018 112.714 17.538C112.9 17.052 113.179 16.668 113.551 16.386C113.929 16.098 114.409 15.954 114.991 15.954C115.819 15.954 116.419 16.248 116.791 16.836C117.169 17.424 117.358 18.192 117.358 19.14C117.358 20.082 117.169 20.85 116.791 21.444C116.419 22.032 115.795 22.326 114.919 22.326ZM126.217 24.27C127.153 24.27 128.008 24.03 128.782 23.55C129.562 23.064 130.138 22.38 130.51 21.498L128.368 20.85C127.936 21.774 127.177 22.236 126.091 22.236C125.353 22.236 124.771 22.023 124.345 21.597C123.919 21.165 123.664 20.547 123.58 19.743H130.618C130.702 18.573 130.573 17.559 130.231 16.701C129.889 15.843 129.364 15.18 128.656 14.712C127.954 14.244 127.099 14.01 126.091 14.01C125.137 14.01 124.297 14.226 123.571 14.658C122.845 15.084 122.278 15.69 121.87 16.476C121.462 17.262 121.258 18.186 121.258 19.248C121.258 20.232 121.465 21.102 121.879 21.858C122.299 22.614 122.881 23.205 123.625 23.631C124.369 24.057 125.233 24.27 126.217 24.27ZM126.181 15.909C126.853 15.909 127.369 16.086 127.729 16.44C128.095 16.788 128.326 17.343 128.422 18.105H123.634C123.892 16.641 124.741 15.909 126.181 15.909ZM132.626 24H134.804V19.059C134.804 18.495 134.906 17.994 135.11 17.556C135.32 17.118 135.647 16.779 136.091 16.539C136.391 16.365 136.727 16.263 137.099 16.233C137.471 16.197 137.804 16.221 138.098 16.305V14.28C137.66 14.214 137.21 14.223 136.748 14.307C136.286 14.385 135.875 14.547 135.515 14.793C135.311 14.919 135.128 15.072 134.966 15.252C134.804 15.426 134.663 15.621 134.543 15.837V14.28H132.626V24Z" fill="#534B52"/>
<defs>
<linearGradient id="paint0_linear" x1="15.4999" y1="24" x2="28.9999" y2="-6" gradientUnits="userSpaceOnUse">
<stop stop-color="#53E9A1"/>
<stop offset="1" stop-color="#92FFCA"/>
</linearGradient>
</defs>
</svg>
